<svg width="176" height="228" viewBox="0 0 176 228" fill="none" xmlns="http://www.w3.org/2000/svg">
<path fill-rule="evenodd" clip-rule="evenodd" d="M0.667969 0.799805V31.5439C0.667969 48.4954 14.462 62.2862 31.4173 62.2862H94.4989L120.063 47.53H31.4173C22.5997 47.53 15.4276 40.358 15.4276 31.5439V15.5573H142.907C151.935 15.5573 156.8 21.6616 158.344 27.3742C159.887 33.0881 158.758 40.8127 150.956 45.3566L17.6039 123.034C8.19062 128.518 2.61475 137.774 2.30848 148.428C2.30474 148.537 2.31097 148.644 2.30973 148.752L158.387 58.1078C170.556 51.0187 176.265 37.1231 172.593 23.5288C169.034 10.3504 157.708 1.3904 144.189 0.852191C143.911 0.819762 143.63 0.799805 143.344 0.799805H0.667969Z" fill="url(#paint0_linear)"/>
<path fill-rule="evenodd" clip-rule="evenodd" d="M17.6133 169.762C5.44486 176.851 -0.264494 190.746 3.40763 204.341C6.96685 217.519 18.292 226.479 31.8109 227.017C32.0891 227.05 32.3704 227.07 32.6568 227.07H175.333V196.326C175.333 179.374 161.539 165.583 144.583 165.583H81.5022L55.9377 180.34H144.583C153.4 180.34 160.573 187.512 160.573 196.326V212.312H33.0934C24.0656 212.312 19.1996 206.208 17.657 200.495C16.1132 194.781 17.2434 187.057 25.0437 182.513L158.397 104.836C167.809 99.3516 173.386 90.0959 173.692 79.4415C173.696 79.333 173.69 79.2257 173.691 79.1172L17.6133 169.762Z" fill="url(#paint1_linear)"/>
<path opacity="0.4" fill-rule="evenodd" clip-rule="evenodd" d="M0.667969 0.799805V31.5439C0.667969 48.4954 14.462 62.2862 31.4173 62.2862H94.4989L120.063 47.53H31.4173C22.5997 47.53 15.4276 40.358 15.4276 31.5439V15.5573H142.907C151.935 15.5573 156.8 21.6616 158.344 27.3742C159.887 33.0881 158.758 40.8127 150.956 45.3566L17.6039 123.034C8.19062 128.518 2.61475 137.774 2.30848 148.428C2.30474 148.537 2.31097 148.644 2.30973 148.752L158.387 58.1078C170.556 51.0187 176.265 37.1231 172.593 23.5288C169.034 10.3504 157.708 1.3904 144.189 0.852191C143.911 0.819762 143.63 0.799805 143.344 0.799805H0.667969Z" fill="url(#paint2_linear)"/>
<path opacity="0.4" fill-rule="evenodd" clip-rule="evenodd" d="M17.6133 169.762C5.44486 176.851 -0.264494 190.746 3.40763 204.341C6.96685 217.519 18.292 226.479 31.8109 227.017C32.0891 227.05 32.3704 227.07 32.6568 227.07H175.333V196.326C175.333 179.374 161.539 165.583 144.583 165.583H81.5022L55.9377 180.34H144.583C153.4 180.34 160.573 187.512 160.573 196.326V212.312H33.0934C24.0656 212.312 19.1996 206.208 17.657 200.495C16.1132 194.781 17.2434 187.057 25.0437 182.513L158.397 104.836C167.809 99.3516 173.386 90.0959 173.692 79.4415C173.696 79.333 173.69 79.2257 173.691 79.1172L17.6133 169.762Z" fill="url(#paint3_linear)"/>
<defs>
<linearGradient id="paint0_linear" x1="87.1809" y1="0.799805" x2="87.1809" y2="148.752" gradientUnits="userSpaceOnUse">
<stop stop-color="#CE5D47"/>
<stop offset="0.255208" stop-color="#F2C94C"/>
<stop offset="0.645833" stop-color="#83B17E"/>
<stop offset="1" stop-color="#5C95CD"/>
</linearGradient>
<linearGradient id="paint1_linear" x1="88.8196" y1="7.41424" x2="-1.20265" y2="212.979" gradientUnits="userSpaceOnUse">
<stop stop-color="#CF6446"/>
<stop offset="0.375" stop-color="#F2C94C"/>
<stop offset="0.65625" stop-color="#97C254"/>
<stop offset="1" stop-color="#50A7D0"/>
</linearGradient>
<linearGradient id="paint2_linear" x1="87.1809" y1="56.0129" x2="87.1809" y2="167.99" gradientUnits="userSpaceOnUse">
<stop stop-color="#CC5C47"/>
<stop offset="0.416667" stop-color="#B3CE47"/>
<stop offset="1" stop-color="#619CD1"/>
</linearGradient>
<linearGradient id="paint3_linear" x1="88.8196" y1="79.1172" x2="88.8196" y2="227.07" gradientUnits="userSpaceOnUse">
<stop stop-color="#E5E5E5"/>
<stop offset="1" stop-color="#E5E5E5" stop-opacity="0"/>
</linearGradient>
</defs>
</svg>
